<?xml version="1.0" standalone="no"?><!DOCTYPE svg PUBLIC "-//W3C//DTD SVG 1.1//EN" "http://www.w3.org/Graphics/SVG/1.1/DTD/svg11.dtd"><svg t="1525672161663" class="icon" style="" viewBox="0 0 1026 1024" version="1.1" xmlns="http://www.w3.org/2000/svg" p-id="3564" xmlns:xlink="http://www.w3.org/1999/xlink" width="200.390625" height="200"><defs><style type="text/css"></style></defs><path d="M982.456 347.053L812.72 516.778c-37.492 37.51-98.289 37.51-135.797 0L507.188 347.053c-37.497-37.509-37.497-98.315 0-135.774L676.923 41.51c37.51-37.507 98.305-37.507 135.803 0l169.73 169.77c37.509 37.458 37.496 98.265 0 135.773z m-50.91-118.802L795.755 92.426c-28.133-28.082-73.727-28.082-101.848 0L558.11 228.25c-28.121 28.084-28.121 73.698 0 101.831l135.797 135.774c28.121 28.133 73.715 28.133 101.848 0L931.54 330.082c28.121-28.132 28.121-73.698 0.006-101.831zM336.74 1023.319H96.695c-53.025 0-96.02-42.996-96.02-96.02V687.25c0-53.024 42.996-96.019 96.02-96.019H336.74c53.03 0 96.026 42.996 96.026 96.02V927.3c0 53.024-42.996 96.019-96.026 96.019z m0-528.11H96.695c-53.025 0-96.02-42.996-96.02-96.02V159.145c0-53.03 42.996-96.02 96.02-96.02H336.74c53.03 0 96.026 42.99 96.026 96.02v240.043c0 53.025-42.996 96.02-96.026 96.02zM624.8 591.23h240.05c53.025 0 96.02 42.996 96.02 96.02V927.3c0 53.024-42.996 96.014-96.02 96.014H624.8c-53.025 0-96.015-42.99-96.015-96.015V687.25c-0.005-53.024 42.99-96.019 96.015-96.019z m0 0" p-id="3565"></path></svg>
