<?xml version="1.0" standalone="no"?><!DOCTYPE svg PUBLIC "-//W3C//DTD SVG 1.1//EN" "http://www.w3.org/Graphics/SVG/1.1/DTD/svg11.dtd"><svg t="1528961786678" class="icon" style="" viewBox="0 0 1024 1024" version="1.1" xmlns="http://www.w3.org/2000/svg" p-id="2881" xmlns:xlink="http://www.w3.org/1999/xlink" width="200" height="200"><defs><style type="text/css"></style></defs><path d="M634.453 809.003h-244.907v60.891h-183.677v60.884h612.263v-60.885h-183.68v-60.89zM841.194 78.379h-658.388c-60.351 0-109.728 55.168-109.728 122.595v429.094c0 67.428 49.376 122.595 109.728 122.595h658.389c60.351 0 109.728-55.168 109.728-122.595v-429.094c0-67.429-49.377-122.595-109.728-122.595zM347.405 630.069h-109.728v-183.901h109.728v183.901zM566.867 630.069h-109.734v-367.793h109.732v367.792zM786.327 630.069h-109.732v-245.197h109.732v245.196z" p-id="2882"></path></svg>