<?xml version="1.0" standalone="no"?><!DOCTYPE svg PUBLIC "-//W3C//DTD SVG 1.1//EN" "http://www.w3.org/Graphics/SVG/1.1/DTD/svg11.dtd"><svg t="1525672555043" class="icon" style="" viewBox="0 0 1024 1024" version="1.1" xmlns="http://www.w3.org/2000/svg" p-id="1710" xmlns:xlink="http://www.w3.org/1999/xlink" width="200" height="200"><defs><style type="text/css"></style></defs><path d="M121.22 50.72v0 0 0zM121.22 50.72z" p-id="1711"></path><path d="M375.74 284.9c0-83.34-70.2-150.96-156.9-150.96-86.58 0.060-156.84 67.62-156.84 150.96 0 40.56 16.68 77.4 43.74 104.58-7.38 29.76-11.22 60.72-11.22 92.64 0 143.52 78.54 269.46 196.5 340.020l31.38-123.96c-64.080-51.72-104.88-129.24-104.88-216 0-15.78 1.32-31.26 3.96-46.26 85.5-1.44 154.26-68.46 154.26-151.020v0 0 0zM510.32 200.6c54.24 0 104.94 14.16 148.56 38.94-6.9 16.98-10.56 35.4-10.56 54.66 0 83.4 70.2 150.96 156.78 150.96s156.9-67.62 156.9-150.96c0-83.34-70.32-150.96-156.9-150.96-20.28 0-39.72 3.72-57.42 10.44-67.38-45.12-149.040-71.58-237.36-71.58-59.76 0-116.58 12.18-167.94 34.020l71.7 100.020c30.12-10.080 62.52-15.54 96.24-15.54v0 0 0zM802.64 494.78c-4.68 102.6-66.54 190.98-155.64 236.4-25.92-48.9-78.78-82.38-139.74-82.38-86.7 0-156.9 67.62-156.9 150.96s70.2 151.020 156.9 151.020c64.98 0 120.9-38.1 144.54-92.34 159.96-55.74 274.2-203.22 274.2-376.26 0-8.88-0.36-17.64-0.96-26.34l-122.4 38.94zM802.64 494.78z" p-id="1712"></path><path d="M121.22 50.72v0 0 0zM121.22 50.72z" p-id="1713"></path><path d="M375.74 284.9c0-83.34-70.2-150.96-156.9-150.96-86.58 0.060-156.84 67.62-156.84 150.96 0 40.56 16.68 77.4 43.74 104.58-7.38 29.76-11.22 60.72-11.22 92.64 0 143.52 78.54 269.46 196.5 340.020l31.38-123.96c-64.080-51.72-104.88-129.24-104.88-216 0-15.78 1.32-31.26 3.96-46.26 85.5-1.44 154.26-68.46 154.26-151.020v0 0 0zM510.32 200.6c54.24 0 104.94 14.16 148.56 38.94-6.9 16.98-10.56 35.4-10.56 54.66 0 83.4 70.2 150.96 156.78 150.96s156.9-67.62 156.9-150.96c0-83.34-70.32-150.96-156.9-150.96-20.28 0-39.72 3.72-57.42 10.44-67.38-45.12-149.040-71.58-237.36-71.58-59.76 0-116.58 12.18-167.94 34.020l71.7 100.020c30.12-10.080 62.52-15.54 96.24-15.54v0 0 0zM802.64 494.78c-4.68 102.6-66.54 190.98-155.64 236.4-25.92-48.9-78.78-82.38-139.74-82.38-86.7 0-156.9 67.62-156.9 150.96s70.2 151.020 156.9 151.020c64.98 0 120.9-38.1 144.54-92.34 159.96-55.74 274.2-203.22 274.2-376.26 0-8.88-0.36-17.64-0.96-26.34l-122.4 38.94zM802.64 494.78z" p-id="1714"></path><path d="M121.22 50.72v0 0 0zM121.22 50.72z" p-id="1715"></path><path d="M375.74 284.9c0-83.34-70.2-150.96-156.9-150.96-86.58 0.060-156.84 67.62-156.84 150.96 0 40.56 16.68 77.4 43.74 104.58-7.38 29.76-11.22 60.72-11.22 92.64 0 143.52 78.54 269.46 196.5 340.020l31.38-123.96c-64.080-51.72-104.88-129.24-104.88-216 0-15.78 1.32-31.26 3.96-46.26 85.5-1.44 154.26-68.46 154.26-151.020v0 0 0zM510.32 200.6c54.24 0 104.94 14.16 148.56 38.94-6.9 16.98-10.56 35.4-10.56 54.66 0 83.4 70.2 150.96 156.78 150.96s156.9-67.62 156.9-150.96c0-83.34-70.32-150.96-156.9-150.96-20.28 0-39.72 3.72-57.42 10.44-67.38-45.12-149.040-71.58-237.36-71.58-59.76 0-116.58 12.18-167.94 34.020l71.7 100.020c30.12-10.080 62.52-15.54 96.24-15.54v0 0 0zM802.64 494.78c-4.68 102.6-66.54 190.98-155.64 236.4-25.92-48.9-78.78-82.38-139.74-82.38-86.7 0-156.9 67.62-156.9 150.96s70.2 151.020 156.9 151.020c64.98 0 120.9-38.1 144.54-92.34 159.96-55.74 274.2-203.22 274.2-376.26 0-8.88-0.36-17.64-0.96-26.34l-122.4 38.94zM802.64 494.78z" p-id="1716"></path></svg>
